<?xml version="1.0" encoding="iso-8859-1"?>
<!-- Generator: Adobe Illustrator 19.0.0, SVG Export Plug-In . SVG Version: 6.00 Build 0)  -->
<svg version="1.1" id="Capa_1" xmlns="http://www.w3.org/2000/svg" xmlns:xlink="http://www.w3.org/1999/xlink" x="0px" y="0px"
	 viewBox="0 0 400 400" style="enable-background:new 0 0 400 400;" xml:space="preserve">
<g>
	<g>
		<path d="M307.68,305.12c-15.36-41.6-58.64-69.52-107.68-69.52h0c-49.04,0-92.32,28-107.68,69.6
			c-1.524,4.153,0.607,8.756,4.76,10.28c4.153,1.524,8.756-0.607,10.28-4.76C120,275.36,157.6,251.6,200,251.6
			c42.4,0,79.6,24,92.64,59.04c1.524,4.153,6.127,6.284,10.28,4.76S309.204,309.273,307.68,305.12z"/>
	</g>
</g>
<g>
	<g>
		<path d="M200,0C89.543,0,0,89.543,0,200s89.543,200,200,200s200-89.543,200-200S310.457,0,200,0z M200,384
			C98.38,384,16,301.62,16,200S98.38,16,200,16s184,82.38,184,184S301.62,384,200,384z"/>
	</g>
</g>
<g>
	<g>
		<path d="M118.48,106.32c-16.569,0-30,13.431-30,30s13.431,30,30,30s30-13.431,30-30S135.049,106.32,118.48,106.32z M118.48,150.32
			c-7.732,0-14-6.268-14-14c0-7.732,6.268-14,14-14c7.732,0,14,6.268,14,14C132.48,144.052,126.212,150.32,118.48,150.32z"/>
	</g>
</g>
<g>
	<g>
		<path d="M281.52,106.32c-16.569,0-30,13.431-30,30s13.431,30,30,30s30-13.431,30-30S298.089,106.32,281.52,106.32z M281.52,150.32
			c-7.732,0-14-6.268-14-14c0-7.732,6.268-14,14-14s14,6.268,14,14C295.52,144.052,289.252,150.32,281.52,150.32z"/>
	</g>
</g>
<g>
</g>
<g>
</g>
<g>
</g>
<g>
</g>
<g>
</g>
<g>
</g>
<g>
</g>
<g>
</g>
<g>
</g>
<g>
</g>
<g>
</g>
<g>
</g>
<g>
</g>
<g>
</g>
<g>
</g>
</svg>
